<svg width="72" height="72" viewBox="0 0 72 72" fill="none" xmlns="http://www.w3.org/2000/svg">
<circle cx="35.7907" cy="35.7905" r="32.4419" fill="white"/>
<path d="M46.8331 15.2678C46.7824 15.1125 46.645 15.0029 46.4815 14.9865C46.3195 14.9718 46.1625 15.0552 46.084 15.1991C46.0742 15.2171 45.0194 17.1192 41.5521 20.7303C41.4687 20.8153 41.4278 20.9331 41.4393 21.0508L41.7484 24.4514C41.7672 24.6577 41.4875 24.7385 41.3933 24.554L40.4138 22.6356C40.355 22.5195 40.2437 22.4393 40.1162 22.4181C39.987 22.3952 39.8577 22.4377 39.7645 22.5277C37.9721 24.2744 35.7461 25.9246 33.6691 28.0016C27.0022 34.6685 25.1549 40.3922 25.5229 43.5814C30.4182 37.4675 35.9463 31.7796 39.0309 29.5828C39.2831 29.4032 39.5853 29.7596 39.3553 29.9668C31.7911 36.784 22.4754 50.9608 20.8987 53.5242L24.8802 51.6604C24.8916 51.6342 25.9465 48.9618 27.5607 46.8783C28.4749 46.9894 29.6148 47.0909 30.7335 47.0909C32.0059 47.0909 33.2505 46.96 34.1042 46.5642C42.2456 42.783 45.6588 34.604 46.7497 31.2628C46.7906 31.1385 46.7677 31.0011 46.6908 30.8948C46.6139 30.7901 46.4913 30.7263 46.3604 30.7263L42.2203 30.6525C42.0104 30.6488 41.9624 30.3564 42.1605 30.287C43.8517 29.6943 47.2371 28.5593 47.2371 28.5593C47.3794 28.5135 47.4856 28.3925 47.5118 28.2453C48.776 21.3959 46.9132 15.5148 46.8331 15.2678Z" fill="black"/>
</svg>
