<svg width="40" height="40" viewBox="0 0 40 40" fill="none" xmlns="http://www.w3.org/2000/svg">
<circle cx="19.8839" cy="19.8836" r="18.0233" fill="white"/>
<path d="M26.0184 8.48192C25.9902 8.39561 25.9139 8.33473 25.823 8.32564C25.733 8.31745 25.6458 8.3638 25.6022 8.44375C25.5968 8.45373 25.0107 9.51045 23.0845 11.5166C23.0381 11.5638 23.0154 11.6293 23.0218 11.6947L23.1935 13.5839C23.204 13.6985 23.0486 13.7434 22.9963 13.6409L22.4521 12.5751C22.4194 12.5106 22.3576 12.4661 22.2867 12.4543C22.215 12.4415 22.1432 12.4652 22.0914 12.5151C21.0956 13.4855 19.8589 14.4024 18.705 15.5562C15.0012 19.2601 13.9749 22.4399 14.1794 24.2117C16.899 20.815 19.9701 17.6551 21.6838 16.4347C21.8239 16.3349 21.9918 16.5329 21.864 16.648C17.6617 20.4354 12.4863 28.3113 11.6104 29.7355L13.8223 28.7C13.8287 28.6855 14.4147 27.2008 15.3115 26.0433C15.8194 26.105 16.4527 26.1614 17.0741 26.1614C17.781 26.1614 18.4725 26.0887 18.9467 25.8688C23.4697 23.7681 25.366 19.2242 25.972 17.368C25.9947 17.2989 25.982 17.2226 25.9393 17.1635C25.8966 17.1054 25.8285 17.07 25.7558 17.07L23.4557 17.029C23.3391 17.0269 23.3124 16.8645 23.4225 16.8259C24.362 16.4966 26.2428 15.8661 26.2428 15.8661C26.3218 15.8406 26.3809 15.7734 26.3954 15.6916C27.0977 11.8864 26.0629 8.6191 26.0184 8.48192Z" fill="black"/>
</svg>
